<svg xmlns="http://www.w3.org/2000/svg" aria-hidden="true" class="h-full max-w-full" viewBox="0 0 6.662 3.964"><path fill="currentColor" stroke="currentColor" stroke-width=".106" d="m2.7 1.7 1.661 1.969L6.223.456zm-.749-.566-.093 1.32.553-.867.007-.008.008-.01.008-.007.006-.005.007-.005.014-.007.008-.004L5.18.583zM.672.389l1.187.53L5.091.366zm2.251 1.929-.099-.117-.304-.362-.532.834zM6.477.132h.01l.016.003h.003l.006.003.026.012a.1.1 0 0 1 .023.02l.003.004.003.004V.18l.01.016v.006l.003.005.004.01v.004l.003.015v.038q0 .004-.003.007l-.007.017v.006L4.479 3.933a.11.11 0 0 1-.089.057h-.01a.11.11 0 0 1-.087-.04L3.081 2.512l-1.324.502-.007.003a.1.1 0 0 1-.04.007.12.12 0 0 1-.089-.042.11.11 0 0 1-.019-.106l.125-1.758L.1.39A.114.114 0 0 1 .034.263a.114.114 0 0 1 .111-.09L6.478.14z" data-name="Path 708"/></svg>