<svg xmlns="http://www.w3.org/2000/svg" fill="none" aria-hidden="true" class="h-full max-w-full" viewBox="0 0 32 32"><path fill="currentColor" d="M16 18a5 5 0 1 1 0-10 5 5 0 0 1 0 10m0-8a3 3 0 1 0 0 5.999A3 3 0 0 0 16 10"/><path fill="currentColor" d="m16 30-8.436-9.949q-.175-.225-.348-.451A10.9 10.9 0 0 1 5 13a11 11 0 1 1 22 0 10.9 10.9 0 0 1-2.215 6.597l-.001.003s-.3.394-.345.447zM8.812 18.395c.002 0 .234.308.287.374L16 26.908l6.91-8.15c.044-.055.278-.365.279-.366A8.9 8.9 0 0 0 25 13a9 9 0 0 0-18 0 8.9 8.9 0 0 0 1.812 5.395"/></svg>