<svg xmlns="http://www.w3.org/2000/svg" aria-hidden="true" class="h-full max-w-full" viewBox="0 0 14.47 16.09"><g fill="currentColor" stroke-width=".265"><path d="m12.5 15.1-3.616-4.452a6 6 0 0 0 .524-.378 6 6 0 0 0 .45-.405l3.612 4.447zm-1.742-8.825A5 5 0 0 1 8.923 9.67a5 5 0 0 1-3.7 1.103 5 5 0 0 1-3.395-1.838A5 5 0 0 1 .726 5.236a5 5 0 0 1 1.836-3.395A5.02 5.02 0 0 1 5.737.714a5.04 5.04 0 0 1 3.919 1.861 5 5 0 0 1 1.101 3.698zm-.503-4.185a5.82 5.82 0 0 0-8.18-.847A5.77 5.77 0 0 0-.042 5.157a5.78 5.78 0 0 0 1.27 4.265 5.78 5.78 0 0 0 3.915 2.117 6 6 0 0 0 .609.032 5.8 5.8 0 0 0 2.445-.543l3.948 4.86a.386.386 0 0 0 .542.055l1.57-1.274a.4.4 0 0 0 .14-.26.38.38 0 0 0-.085-.282l-3.94-4.851a5.8 5.8 0 0 0 1.153-2.921 5.78 5.78 0 0 0-1.27-4.264z" data-name="Path 684"/><path d="M8 8.5a3.49 3.49 0 0 1-4.902-.507 3.46 3.46 0 0 1-.762-2.557 3.46 3.46 0 0 1 1.27-2.346 3.46 3.46 0 0 1 2.191-.78 4 4 0 0 1 .365.019 3.47 3.47 0 0 1 2.346 1.27A3.49 3.49 0 0 1 8 8.5M6.242 1.56a4.23 4.23 0 0 0-3.122.931 4.23 4.23 0 0 0-1.551 2.865 4.23 4.23 0 0 0 .93 3.122 4.25 4.25 0 0 0 3.307 1.571 4.24 4.24 0 0 0 2.68-.95 4.26 4.26 0 0 0 .62-5.989 4.23 4.23 0 0 0-2.864-1.55" data-name="Path 685"/></g></svg>